<svg xmlns="http://www.w3.org/2000/svg" width="28" height="24" viewBox="0 0 28 24" fill="none">
  <path d="M27.7796 11.3772C26.565 9.36332 25.0957 7.61938 23.2933 6.16609C22.8232 5.79239 22.3334 5.43945 21.8436 5.12803L25.3112 1.45329L23.9398 0L20.0413 4.13149C17.1419 2.74048 14.0269 2.38754 10.6965 3.19723C5.93598 4.3391 2.50761 7.47405 0 11.8547C0 12 0 12.1661 0 12.3114C0.0783628 12.4775 0.156726 12.6228 0.254679 12.7889C1.52807 14.9481 3.11492 16.7751 5.0544 18.2491C5.38744 18.4983 5.72048 18.7266 6.05352 18.955L2.68392 22.526L4.07486 24L7.85587 19.9931C11.2255 21.654 14.8302 21.8824 18.6112 20.6159C22.5881 19.2872 25.5267 16.4844 27.7796 12.7889C28.0735 12.3114 28.0735 11.8754 27.7796 11.3772ZM5.64212 16.3599C4.23159 15.218 3.03656 13.8478 2.03743 12.2907C1.93948 12.1453 1.91989 12.0415 2.01784 11.8962C3.97691 8.9481 6.44534 6.68512 9.69739 5.43945C10.9708 4.94118 12.5576 4.65052 14.3992 4.65052C15.8685 4.65052 17.3182 4.9827 18.7091 5.56401L16.9264 7.45329C16.1035 6.87197 15.1044 6.51903 14.0269 6.51903C11.1275 6.51903 8.75704 9.01038 8.75704 12.083C8.75704 13.2249 9.07049 14.2837 9.63862 15.1765L7.3661 17.564C6.77838 17.2111 6.21025 16.8166 5.64212 16.3599ZM17.5141 12.1038C17.5141 14.1384 15.9272 15.8201 14.0073 15.8201C13.3804 15.8201 12.7731 15.6332 12.2638 15.3218L17.0439 10.2353C17.3378 10.7958 17.5141 11.4187 17.5141 12.1038ZM10.5006 12.083C10.5006 10.0277 12.0875 8.34602 14.0269 8.36678C14.6147 8.36678 15.1632 8.53287 15.6334 8.80277L10.912 13.8062C10.6573 13.2872 10.5006 12.7059 10.5006 12.083ZM26.036 12.2284C24.1553 15.0934 21.8044 17.3772 18.6895 18.5813C15.3395 19.8893 12.1854 19.827 9.20763 18.5398L10.9904 16.6505C11.8328 17.2941 12.8711 17.6678 13.9878 17.6678C16.8872 17.6678 19.2577 15.1765 19.2577 12.1038C19.2577 10.9204 18.905 9.79931 18.3173 8.90657L20.5702 6.51903C21.4126 7.03806 22.255 7.6609 23.0387 8.38754C24.1749 9.42561 25.1545 10.609 26.0164 11.8962C26.0752 12 26.134 12.083 26.036 12.2284Z" fill="#5663B1"/>
</svg>