<svg xmlns="http://www.w3.org/2000/svg" width="28" height="18" viewBox="0 0 28 18" fill="none">
  <path d="M0 8.7828C2.50586 4.6197 5.93183 1.64042 10.7086 0.555254C15.3092 -0.510184 19.5183 0.535524 23.2966 3.39642C25.0977 4.75781 26.566 6.41516 27.7798 8.34873C28.0734 8.80253 28.0734 9.21687 27.7798 9.67066C25.5088 13.1629 22.5723 15.8265 18.5981 17.0893C13.7431 18.6282 9.20119 17.8193 5.05087 14.8597C3.11274 13.4589 1.52701 11.7029 0.254501 9.67066C0.156616 9.53255 0.078308 9.37471 0 9.21687C0 9.07876 0 8.92091 0 8.7828ZM14.3891 1.93638C12.5489 1.93638 10.9827 2.2126 9.69061 2.68613C6.46041 3.85022 3.97413 6.00082 2.01643 8.82226C1.91855 8.9801 1.93812 9.07876 2.03601 9.19714C3.05401 10.6572 4.22863 11.9791 5.63818 13.0643C9.61231 16.1028 13.9584 16.9512 18.6569 15.1952C21.7696 14.0311 24.1189 11.8607 25.9983 9.15768C26.0961 9.01956 26.0374 8.94064 25.9591 8.84199C25.1173 7.59898 24.1189 6.47435 22.9834 5.50757C20.4188 3.21885 17.4627 1.95611 14.3891 1.93638Z" fill="#5663B1"/>
  <path d="M8.75098 8.98011C8.75098 6.06002 11.1198 3.69238 14.0172 3.69238C16.9146 3.69238 19.2638 6.07975 19.2638 9.01957C19.2638 11.9397 16.895 14.3073 13.9976 14.3073C11.1002 14.2876 8.75098 11.9002 8.75098 8.98011ZM13.9976 12.5316C15.9162 12.5316 17.5019 10.9531 17.5019 8.99984C17.5019 7.04654 15.9357 5.46811 14.0172 5.44838C12.0791 5.44838 10.4933 7.02681 10.4933 8.98011C10.5129 10.9334 12.0791 12.5316 13.9976 12.5316Z" fill="#5663B1"/>
</svg>