<svg xmlns="http://www.w3.org/2000/svg" width="16" height="16" viewBox="0 0 16 16" fill="none">
  <path fill-rule="evenodd" clip-rule="evenodd" d="M7.82534 4.07997L4.80753 7.06251L13.813 7.10365C13.9508 7.10416 14.0871 7.13184 14.2142 7.18511C14.3413 7.23838 14.4566 7.31619 14.5536 7.41408C14.6506 7.51197 14.7273 7.62803 14.7794 7.75561C14.8315 7.88319 14.8579 8.01978 14.8571 8.15758C14.8565 8.2953 14.8287 8.43153 14.7753 8.55851C14.722 8.68548 14.6442 8.8007 14.5463 8.89758C14.4484 8.99446 14.3324 9.0711 14.2049 9.12312C14.0774 9.17513 13.9409 9.20151 13.8032 9.20074L4.79969 9.16058L7.77734 12.1735C7.87439 12.2712 7.95123 12.3871 8.00347 12.5145C8.0557 12.642 8.08231 12.7785 8.08176 12.9162C8.08122 13.0539 8.05353 13.1902 8.00029 13.3172C7.94704 13.4442 7.86929 13.5595 7.77146 13.6564C7.57368 13.8521 7.30632 13.9613 7.02808 13.96C6.74985 13.9588 6.4835 13.8471 6.28754 13.6496L1.39009 8.70414C1.22995 8.54138 1.14101 8.32168 1.14285 8.09335C1.14469 7.86503 1.23714 7.64679 1.39989 7.48663L6.34925 2.58918C6.54686 2.39354 6.81407 2.28437 7.09214 2.28566C7.37021 2.28694 7.6364 2.39858 7.83219 2.59604C7.92921 2.69391 8.006 2.80993 8.05816 2.93748C8.11032 3.06504 8.13685 3.20162 8.13621 3.33942C8.13557 3.47723 8.10779 3.61356 8.05445 3.74062C8.00111 3.86769 7.92326 3.983 7.82534 4.07997Z" fill="#18273A"/>
</svg>